<mxfile host="app.diagrams.net" modified="2024-02-07T12:58:46.243Z" agent="Mozilla/5.0 (Windows NT 10.0; Win64; x64) AppleWebKit/537.36 (KHTML, like Gecko) Chrome/121.0.0.0 Safari/537.36 Edg/121.0.0.0" etag="VsRn0mfLrGDcg-EBj-sG" version="23.1.1" type="device">
  <diagram name="Page-1" id="SyhlITrY_RkXlq2M6yT9">
    <mxGraphModel dx="1904" dy="3330" grid="1" gridSize="10" guides="1" tooltips="1" connect="1" arrows="1" fold="1" page="1" pageScale="1" pageWidth="827" pageHeight="1169" math="0" shadow="0">
      <root>
        <mxCell id="0" />
        <mxCell id="1" parent="0" />
        <mxCell id="cnsOktzI4r68Ikq-aKWd-40" value="&lt;font style=&quot;font-size: 18px;&quot;&gt;Model&lt;/font&gt;" style="rounded=0;whiteSpace=wrap;html=1;fillColor=#d5e8d4;strokeColor=#82b366;" parent="1" vertex="1">
          <mxGeometry x="10" y="-2320" width="110" height="30" as="geometry" />
        </mxCell>
        <mxCell id="cnsOktzI4r68Ikq-aKWd-41" value="&lt;font style=&quot;font-size: 18px;&quot;&gt;View&lt;/font&gt;" style="rounded=0;whiteSpace=wrap;html=1;fillColor=#fff2cc;strokeColor=#d6b656;" parent="1" vertex="1">
          <mxGeometry x="10" y="-2280" width="110" height="30" as="geometry" />
        </mxCell>
        <mxCell id="cnsOktzI4r68Ikq-aKWd-42" value="&lt;font style=&quot;font-size: 18px;&quot;&gt;Controller&lt;/font&gt;" style="rounded=0;whiteSpace=wrap;html=1;fillColor=#f8cecc;strokeColor=#b85450;" parent="1" vertex="1">
          <mxGeometry x="10" y="-2240" width="110" height="30" as="geometry" />
        </mxCell>
        <mxCell id="KQ0SR5y5xi1Pba1qKNM7-4" value="&lt;font style=&quot;font-size: 17px;&quot;&gt;a sync&lt;/font&gt;" style="text;strokeColor=none;align=center;fillColor=none;html=1;verticalAlign=middle;whiteSpace=wrap;rounded=0;" parent="1" vertex="1">
          <mxGeometry x="190" y="-1950" width="60" height="30" as="geometry" />
        </mxCell>
        <mxCell id="KQ0SR5y5xi1Pba1qKNM7-17" style="edgeStyle=orthogonalEdgeStyle;rounded=0;orthogonalLoop=1;jettySize=auto;html=1;entryX=0;entryY=0.5;entryDx=0;entryDy=0;" parent="1" source="KQ0SR5y5xi1Pba1qKNM7-5" target="KQ0SR5y5xi1Pba1qKNM7-6" edge="1">
          <mxGeometry relative="1" as="geometry">
            <mxPoint x="510" y="-2030" as="targetPoint" />
            <Array as="points">
              <mxPoint x="520" y="-2040" />
            </Array>
          </mxGeometry>
        </mxCell>
        <mxCell id="KQ0SR5y5xi1Pba1qKNM7-18" style="edgeStyle=orthogonalEdgeStyle;rounded=0;orthogonalLoop=1;jettySize=auto;html=1;" parent="1" source="KQ0SR5y5xi1Pba1qKNM7-5" target="KQ0SR5y5xi1Pba1qKNM7-7" edge="1">
          <mxGeometry relative="1" as="geometry">
            <Array as="points">
              <mxPoint x="520" y="-2040" />
            </Array>
          </mxGeometry>
        </mxCell>
        <mxCell id="KQ0SR5y5xi1Pba1qKNM7-5" value="&lt;font style=&quot;font-size: 18px;&quot;&gt;Entry Point&lt;/font&gt;" style="rounded=0;whiteSpace=wrap;html=1;fillColor=#f8cecc;strokeColor=#b85450;" parent="1" vertex="1">
          <mxGeometry x="460" y="-2160" width="120" height="60" as="geometry" />
        </mxCell>
        <mxCell id="KQ0SR5y5xi1Pba1qKNM7-6" value="&lt;font style=&quot;font-size: 18px;&quot;&gt;Loading Screen&lt;/font&gt;" style="rounded=0;whiteSpace=wrap;html=1;fillColor=#fff2cc;strokeColor=#d6b656;" parent="1" vertex="1">
          <mxGeometry x="620" y="-2070" width="120" height="60" as="geometry" />
        </mxCell>
        <mxCell id="KQ0SR5y5xi1Pba1qKNM7-19" style="edgeStyle=orthogonalEdgeStyle;rounded=0;orthogonalLoop=1;jettySize=auto;html=1;entryX=0;entryY=0.5;entryDx=0;entryDy=0;dashed=1;dashPattern=8 8;" parent="1" source="KQ0SR5y5xi1Pba1qKNM7-7" target="KQ0SR5y5xi1Pba1qKNM7-9" edge="1">
          <mxGeometry relative="1" as="geometry">
            <Array as="points">
              <mxPoint x="250" y="-2040" />
              <mxPoint x="250" y="-1850" />
            </Array>
          </mxGeometry>
        </mxCell>
        <mxCell id="KQ0SR5y5xi1Pba1qKNM7-7" value="&lt;font style=&quot;font-size: 18px;&quot;&gt;Ask for Category Data&lt;/font&gt;" style="rounded=0;whiteSpace=wrap;html=1;fillColor=#d5e8d4;strokeColor=#82b366;" parent="1" vertex="1">
          <mxGeometry x="295" y="-2070" width="120" height="60" as="geometry" />
        </mxCell>
        <mxCell id="KQ0SR5y5xi1Pba1qKNM7-20" style="edgeStyle=orthogonalEdgeStyle;rounded=0;orthogonalLoop=1;jettySize=auto;html=1;entryX=0;entryY=0.75;entryDx=0;entryDy=0;dashed=1;dashPattern=8 8;" parent="1" edge="1">
          <mxGeometry relative="1" as="geometry">
            <mxPoint x="295" y="-1970" as="sourcePoint" />
            <mxPoint x="295" y="-1765" as="targetPoint" />
            <Array as="points">
              <mxPoint x="270" y="-1970" />
              <mxPoint x="270" y="-1765" />
            </Array>
          </mxGeometry>
        </mxCell>
        <mxCell id="KQ0SR5y5xi1Pba1qKNM7-8" value="&lt;font style=&quot;font-size: 18px;&quot;&gt;Ask for Product Data&lt;/font&gt;" style="rounded=0;whiteSpace=wrap;html=1;fillColor=#d5e8d4;strokeColor=#82b366;" parent="1" vertex="1">
          <mxGeometry x="295" y="-1990" width="120" height="60" as="geometry" />
        </mxCell>
        <mxCell id="KQ0SR5y5xi1Pba1qKNM7-36" style="edgeStyle=orthogonalEdgeStyle;rounded=0;orthogonalLoop=1;jettySize=auto;html=1;" parent="1" source="KQ0SR5y5xi1Pba1qKNM7-9" target="KQ0SR5y5xi1Pba1qKNM7-32" edge="1">
          <mxGeometry relative="1" as="geometry">
            <Array as="points">
              <mxPoint x="355" y="-1810" />
              <mxPoint x="205" y="-1810" />
            </Array>
          </mxGeometry>
        </mxCell>
        <mxCell id="QeqidoW3ztrJEfPdvDUn-33" style="edgeStyle=orthogonalEdgeStyle;rounded=0;orthogonalLoop=1;jettySize=auto;html=1;" edge="1" parent="1" source="KQ0SR5y5xi1Pba1qKNM7-9" target="KQ0SR5y5xi1Pba1qKNM7-12">
          <mxGeometry relative="1" as="geometry" />
        </mxCell>
        <mxCell id="QeqidoW3ztrJEfPdvDUn-34" style="edgeStyle=orthogonalEdgeStyle;rounded=0;orthogonalLoop=1;jettySize=auto;html=1;entryX=0.5;entryY=0;entryDx=0;entryDy=0;" edge="1" parent="1" source="KQ0SR5y5xi1Pba1qKNM7-9" target="KQ0SR5y5xi1Pba1qKNM7-22">
          <mxGeometry relative="1" as="geometry" />
        </mxCell>
        <mxCell id="KQ0SR5y5xi1Pba1qKNM7-9" value="&lt;font style=&quot;font-size: 18px;&quot;&gt;Receive Category Data&lt;/font&gt;" style="rounded=0;whiteSpace=wrap;html=1;fillColor=#f8cecc;strokeColor=#b85450;" parent="1" vertex="1">
          <mxGeometry x="295" y="-1880" width="120" height="60" as="geometry" />
        </mxCell>
        <mxCell id="KQ0SR5y5xi1Pba1qKNM7-34" style="edgeStyle=orthogonalEdgeStyle;rounded=0;orthogonalLoop=1;jettySize=auto;html=1;entryX=1;entryY=0.75;entryDx=0;entryDy=0;" parent="1" source="KQ0SR5y5xi1Pba1qKNM7-10" target="KQ0SR5y5xi1Pba1qKNM7-32" edge="1">
          <mxGeometry relative="1" as="geometry">
            <Array as="points">
              <mxPoint x="355" y="-1710" />
              <mxPoint x="250" y="-1710" />
              <mxPoint x="250" y="-1750" />
            </Array>
          </mxGeometry>
        </mxCell>
        <mxCell id="QeqidoW3ztrJEfPdvDUn-32" style="edgeStyle=orthogonalEdgeStyle;rounded=0;orthogonalLoop=1;jettySize=auto;html=1;" edge="1" parent="1" source="KQ0SR5y5xi1Pba1qKNM7-10" target="KQ0SR5y5xi1Pba1qKNM7-13">
          <mxGeometry relative="1" as="geometry" />
        </mxCell>
        <mxCell id="KQ0SR5y5xi1Pba1qKNM7-10" value="&lt;font style=&quot;font-size: 18px;&quot;&gt;Receive Product Data&lt;/font&gt;" style="rounded=0;whiteSpace=wrap;html=1;fillColor=#f8cecc;strokeColor=#b85450;" parent="1" vertex="1">
          <mxGeometry x="295" y="-1800" width="120" height="60" as="geometry" />
        </mxCell>
        <mxCell id="KQ0SR5y5xi1Pba1qKNM7-12" value="&lt;font style=&quot;font-size: 18px;&quot;&gt;Build Nav Bar&lt;/font&gt;" style="rounded=0;whiteSpace=wrap;html=1;fillColor=#fff2cc;strokeColor=#d6b656;" parent="1" vertex="1">
          <mxGeometry x="605" y="-1880" width="120" height="60" as="geometry" />
        </mxCell>
        <mxCell id="KQ0SR5y5xi1Pba1qKNM7-13" value="&lt;font style=&quot;font-size: 18px;&quot;&gt;Build Products&lt;/font&gt;" style="rounded=0;whiteSpace=wrap;html=1;fillColor=#fff2cc;strokeColor=#d6b656;" parent="1" vertex="1">
          <mxGeometry x="605" y="-1800" width="120" height="60" as="geometry" />
        </mxCell>
        <mxCell id="KQ0SR5y5xi1Pba1qKNM7-22" value="&lt;font style=&quot;font-size: 18px;&quot;&gt;Remove Loading Page&lt;/font&gt;" style="rounded=0;whiteSpace=wrap;html=1;fillColor=#fff2cc;strokeColor=#d6b656;" parent="1" vertex="1">
          <mxGeometry x="450" y="-1720" width="120" height="60" as="geometry" />
        </mxCell>
        <mxCell id="KQ0SR5y5xi1Pba1qKNM7-40" style="edgeStyle=orthogonalEdgeStyle;rounded=0;orthogonalLoop=1;jettySize=auto;html=1;" parent="1" source="KQ0SR5y5xi1Pba1qKNM7-30" target="KQ0SR5y5xi1Pba1qKNM7-31" edge="1">
          <mxGeometry relative="1" as="geometry" />
        </mxCell>
        <mxCell id="KQ0SR5y5xi1Pba1qKNM7-30" value="&lt;font style=&quot;font-size: 18px;&quot;&gt;Display Error&lt;/font&gt;" style="rounded=0;whiteSpace=wrap;html=1;fillColor=#fff2cc;strokeColor=#d6b656;" parent="1" vertex="1">
          <mxGeometry x="140" y="-1710" width="90" height="40" as="geometry" />
        </mxCell>
        <mxCell id="KQ0SR5y5xi1Pba1qKNM7-41" style="edgeStyle=orthogonalEdgeStyle;rounded=0;orthogonalLoop=1;jettySize=auto;html=1;entryX=0;entryY=0.5;entryDx=0;entryDy=0;exitX=0;exitY=0.5;exitDx=0;exitDy=0;" parent="1" source="KQ0SR5y5xi1Pba1qKNM7-31" target="KQ0SR5y5xi1Pba1qKNM7-5" edge="1">
          <mxGeometry relative="1" as="geometry">
            <Array as="points">
              <mxPoint x="120" y="-1620" />
              <mxPoint x="120" y="-2130" />
            </Array>
          </mxGeometry>
        </mxCell>
        <mxCell id="KQ0SR5y5xi1Pba1qKNM7-31" value="&lt;font style=&quot;font-size: 18px;&quot;&gt;Reload Page&lt;/font&gt;" style="rounded=0;whiteSpace=wrap;html=1;fillColor=#f8cecc;strokeColor=#b85450;" parent="1" vertex="1">
          <mxGeometry x="140" y="-1640" width="90" height="40" as="geometry" />
        </mxCell>
        <mxCell id="KQ0SR5y5xi1Pba1qKNM7-39" style="edgeStyle=orthogonalEdgeStyle;rounded=0;orthogonalLoop=1;jettySize=auto;html=1;entryX=0.5;entryY=0;entryDx=0;entryDy=0;" parent="1" source="KQ0SR5y5xi1Pba1qKNM7-32" target="KQ0SR5y5xi1Pba1qKNM7-30" edge="1">
          <mxGeometry relative="1" as="geometry" />
        </mxCell>
        <mxCell id="KQ0SR5y5xi1Pba1qKNM7-32" value="&lt;font style=&quot;font-size: 18px;&quot;&gt;Error System&lt;/font&gt;" style="rounded=0;whiteSpace=wrap;html=1;fillColor=#f8cecc;strokeColor=#b85450;" parent="1" vertex="1">
          <mxGeometry x="140" y="-1780" width="90" height="40" as="geometry" />
        </mxCell>
        <mxCell id="KQ0SR5y5xi1Pba1qKNM7-51" style="edgeStyle=orthogonalEdgeStyle;rounded=0;orthogonalLoop=1;jettySize=auto;html=1;" parent="1" source="KQ0SR5y5xi1Pba1qKNM7-42" target="KQ0SR5y5xi1Pba1qKNM7-43" edge="1">
          <mxGeometry relative="1" as="geometry">
            <Array as="points">
              <mxPoint x="1066" y="-2010" />
            </Array>
          </mxGeometry>
        </mxCell>
        <mxCell id="KQ0SR5y5xi1Pba1qKNM7-52" style="edgeStyle=orthogonalEdgeStyle;rounded=0;orthogonalLoop=1;jettySize=auto;html=1;" parent="1" source="KQ0SR5y5xi1Pba1qKNM7-42" target="KQ0SR5y5xi1Pba1qKNM7-44" edge="1">
          <mxGeometry relative="1" as="geometry" />
        </mxCell>
        <mxCell id="KQ0SR5y5xi1Pba1qKNM7-42" value="&lt;font style=&quot;font-size: 18px;&quot;&gt;User Interaction&lt;br&gt;Click on menu&lt;br&gt;&lt;/font&gt;" style="rounded=0;whiteSpace=wrap;html=1;fillColor=#f8cecc;strokeColor=#b85450;" parent="1" vertex="1">
          <mxGeometry x="1026" y="-2160" width="160" height="60" as="geometry" />
        </mxCell>
        <mxCell id="KQ0SR5y5xi1Pba1qKNM7-53" style="edgeStyle=orthogonalEdgeStyle;rounded=0;orthogonalLoop=1;jettySize=auto;html=1;entryX=1;entryY=0.5;entryDx=0;entryDy=0;dashed=1;dashPattern=8 8;" parent="1" source="KQ0SR5y5xi1Pba1qKNM7-44" target="KQ0SR5y5xi1Pba1qKNM7-45" edge="1">
          <mxGeometry relative="1" as="geometry">
            <Array as="points">
              <mxPoint x="1436" y="-2130" />
              <mxPoint x="1436" y="-1990" />
            </Array>
          </mxGeometry>
        </mxCell>
        <mxCell id="KQ0SR5y5xi1Pba1qKNM7-44" value="&lt;font style=&quot;font-size: 18px;&quot;&gt;Ask for Products&lt;/font&gt;" style="rounded=0;whiteSpace=wrap;html=1;fillColor=#d5e8d4;strokeColor=#82b366;" parent="1" vertex="1">
          <mxGeometry x="1266" y="-2160" width="130" height="60" as="geometry" />
        </mxCell>
        <mxCell id="KQ0SR5y5xi1Pba1qKNM7-54" style="edgeStyle=orthogonalEdgeStyle;rounded=0;orthogonalLoop=1;jettySize=auto;html=1;" parent="1" source="KQ0SR5y5xi1Pba1qKNM7-45" target="KQ0SR5y5xi1Pba1qKNM7-46" edge="1">
          <mxGeometry relative="1" as="geometry" />
        </mxCell>
        <mxCell id="KQ0SR5y5xi1Pba1qKNM7-56" value="" style="edgeStyle=orthogonalEdgeStyle;rounded=0;orthogonalLoop=1;jettySize=auto;html=1;" parent="1" source="KQ0SR5y5xi1Pba1qKNM7-45" target="KQ0SR5y5xi1Pba1qKNM7-49" edge="1">
          <mxGeometry relative="1" as="geometry" />
        </mxCell>
        <mxCell id="KQ0SR5y5xi1Pba1qKNM7-45" value="&lt;font style=&quot;font-size: 18px;&quot;&gt;Receive Data&lt;/font&gt;" style="rounded=0;whiteSpace=wrap;html=1;fillColor=#f8cecc;strokeColor=#b85450;" parent="1" vertex="1">
          <mxGeometry x="1266" y="-2020" width="130" height="60" as="geometry" />
        </mxCell>
        <mxCell id="KQ0SR5y5xi1Pba1qKNM7-59" style="edgeStyle=orthogonalEdgeStyle;rounded=0;orthogonalLoop=1;jettySize=auto;html=1;" parent="1" source="KQ0SR5y5xi1Pba1qKNM7-46" target="KQ0SR5y5xi1Pba1qKNM7-47" edge="1">
          <mxGeometry relative="1" as="geometry" />
        </mxCell>
        <mxCell id="KQ0SR5y5xi1Pba1qKNM7-46" value="&lt;font style=&quot;font-size: 18px;&quot;&gt;Error System&lt;/font&gt;" style="rounded=0;whiteSpace=wrap;html=1;fillColor=#f8cecc;strokeColor=#b85450;" parent="1" vertex="1">
          <mxGeometry x="1106" y="-2020" width="100" height="60" as="geometry" />
        </mxCell>
        <mxCell id="KQ0SR5y5xi1Pba1qKNM7-47" value="&lt;font style=&quot;font-size: 18px;&quot;&gt;Show Error&amp;nbsp;&lt;/font&gt;" style="rounded=0;whiteSpace=wrap;html=1;fillColor=#fff2cc;strokeColor=#d6b656;" parent="1" vertex="1">
          <mxGeometry x="1106" y="-1930" width="100" height="60" as="geometry" />
        </mxCell>
        <mxCell id="KQ0SR5y5xi1Pba1qKNM7-48" value="&lt;font style=&quot;font-size: 17px;&quot;&gt;ok&lt;/font&gt;" style="text;strokeColor=none;align=center;fillColor=none;html=1;verticalAlign=middle;whiteSpace=wrap;rounded=0;" parent="1" vertex="1">
          <mxGeometry x="1266" y="-1950" width="60" height="30" as="geometry" />
        </mxCell>
        <mxCell id="KQ0SR5y5xi1Pba1qKNM7-58" style="edgeStyle=orthogonalEdgeStyle;rounded=0;orthogonalLoop=1;jettySize=auto;html=1;entryX=0;entryY=0.5;entryDx=0;entryDy=0;" parent="1" source="KQ0SR5y5xi1Pba1qKNM7-49" target="KQ0SR5y5xi1Pba1qKNM7-50" edge="1">
          <mxGeometry relative="1" as="geometry" />
        </mxCell>
        <mxCell id="KQ0SR5y5xi1Pba1qKNM7-49" value="&lt;font style=&quot;font-size: 18px;&quot;&gt;Build Products&lt;/font&gt;" style="rounded=0;whiteSpace=wrap;html=1;fillColor=#fff2cc;strokeColor=#d6b656;" parent="1" vertex="1">
          <mxGeometry x="1266" y="-1900" width="130" height="60" as="geometry" />
        </mxCell>
        <mxCell id="KQ0SR5y5xi1Pba1qKNM7-50" value="&lt;font style=&quot;font-size: 18px;&quot;&gt;Clear Landing page&lt;/font&gt;" style="rounded=0;whiteSpace=wrap;html=1;fillColor=#fff2cc;strokeColor=#d6b656;" parent="1" vertex="1">
          <mxGeometry x="1446" y="-1900" width="130" height="60" as="geometry" />
        </mxCell>
        <mxCell id="KQ0SR5y5xi1Pba1qKNM7-55" value="&lt;font style=&quot;font-size: 17px;&quot;&gt;no&lt;/font&gt;" style="text;strokeColor=none;align=center;fillColor=none;html=1;verticalAlign=middle;whiteSpace=wrap;rounded=0;" parent="1" vertex="1">
          <mxGeometry x="1206" y="-2025" width="60" height="30" as="geometry" />
        </mxCell>
        <mxCell id="KQ0SR5y5xi1Pba1qKNM7-75" style="edgeStyle=orthogonalEdgeStyle;rounded=0;orthogonalLoop=1;jettySize=auto;html=1;entryX=0;entryY=0.5;entryDx=0;entryDy=0;" parent="1" source="KQ0SR5y5xi1Pba1qKNM7-60" target="KQ0SR5y5xi1Pba1qKNM7-61" edge="1">
          <mxGeometry relative="1" as="geometry" />
        </mxCell>
        <mxCell id="KQ0SR5y5xi1Pba1qKNM7-60" value="&lt;font style=&quot;font-size: 18px;&quot;&gt;Buy&lt;/font&gt;" style="rounded=0;whiteSpace=wrap;html=1;fillColor=#f8cecc;strokeColor=#b85450;" parent="1" vertex="1">
          <mxGeometry x="40" y="-1040" width="120" height="60" as="geometry" />
        </mxCell>
        <mxCell id="KQ0SR5y5xi1Pba1qKNM7-76" style="edgeStyle=orthogonalEdgeStyle;rounded=0;orthogonalLoop=1;jettySize=auto;html=1;dashed=1;dashPattern=8 8;" parent="1" source="KQ0SR5y5xi1Pba1qKNM7-61" target="KQ0SR5y5xi1Pba1qKNM7-62" edge="1">
          <mxGeometry relative="1" as="geometry" />
        </mxCell>
        <mxCell id="KQ0SR5y5xi1Pba1qKNM7-61" value="&lt;font style=&quot;font-size: 18px;&quot;&gt;Add Data to the Cart&lt;/font&gt;" style="rounded=0;whiteSpace=wrap;html=1;fillColor=#d5e8d4;strokeColor=#82b366;" parent="1" vertex="1">
          <mxGeometry x="240" y="-1040" width="120" height="60" as="geometry" />
        </mxCell>
        <mxCell id="KQ0SR5y5xi1Pba1qKNM7-77" style="edgeStyle=orthogonalEdgeStyle;rounded=0;orthogonalLoop=1;jettySize=auto;html=1;entryX=1;entryY=0.5;entryDx=0;entryDy=0;dashed=1;dashPattern=8 8;" parent="1" source="KQ0SR5y5xi1Pba1qKNM7-62" target="KQ0SR5y5xi1Pba1qKNM7-63" edge="1">
          <mxGeometry relative="1" as="geometry" />
        </mxCell>
        <mxCell id="KQ0SR5y5xi1Pba1qKNM7-62" value="&lt;font style=&quot;font-size: 18px;&quot;&gt;Remember the Data&lt;/font&gt;" style="rounded=0;whiteSpace=wrap;html=1;fillColor=#f8cecc;strokeColor=#b85450;" parent="1" vertex="1">
          <mxGeometry x="240" y="-920" width="120" height="60" as="geometry" />
        </mxCell>
        <mxCell id="KQ0SR5y5xi1Pba1qKNM7-79" style="edgeStyle=orthogonalEdgeStyle;rounded=0;orthogonalLoop=1;jettySize=auto;html=1;dashed=1;dashPattern=8 8;" parent="1" source="KQ0SR5y5xi1Pba1qKNM7-63" target="KQ0SR5y5xi1Pba1qKNM7-64" edge="1">
          <mxGeometry relative="1" as="geometry" />
        </mxCell>
        <mxCell id="KQ0SR5y5xi1Pba1qKNM7-63" value="&lt;font style=&quot;font-size: 18px;&quot;&gt;Receive Data&lt;/font&gt;" style="rounded=0;whiteSpace=wrap;html=1;fillColor=#f8cecc;strokeColor=#b85450;" parent="1" vertex="1">
          <mxGeometry x="40" y="-920" width="120" height="60" as="geometry" />
        </mxCell>
        <mxCell id="KQ0SR5y5xi1Pba1qKNM7-82" style="edgeStyle=orthogonalEdgeStyle;rounded=0;orthogonalLoop=1;jettySize=auto;html=1;" parent="1" source="KQ0SR5y5xi1Pba1qKNM7-64" target="KQ0SR5y5xi1Pba1qKNM7-72" edge="1">
          <mxGeometry relative="1" as="geometry" />
        </mxCell>
        <mxCell id="KQ0SR5y5xi1Pba1qKNM7-83" style="edgeStyle=orthogonalEdgeStyle;rounded=0;orthogonalLoop=1;jettySize=auto;html=1;" parent="1" source="KQ0SR5y5xi1Pba1qKNM7-64" target="KQ0SR5y5xi1Pba1qKNM7-65" edge="1">
          <mxGeometry relative="1" as="geometry" />
        </mxCell>
        <mxCell id="KQ0SR5y5xi1Pba1qKNM7-64" value="&lt;font style=&quot;font-size: 18px;&quot;&gt;We have the Data&lt;/font&gt;" style="rounded=0;whiteSpace=wrap;html=1;" parent="1" vertex="1">
          <mxGeometry x="40" y="-800" width="120" height="60" as="geometry" />
        </mxCell>
        <mxCell id="KQ0SR5y5xi1Pba1qKNM7-65" value="&lt;font style=&quot;font-size: 18px;&quot;&gt;Show Basket&lt;/font&gt;" style="rounded=0;whiteSpace=wrap;html=1;fillColor=#fff2cc;strokeColor=#d6b656;" parent="1" vertex="1">
          <mxGeometry x="240" y="-800" width="120" height="60" as="geometry" />
        </mxCell>
        <mxCell id="KQ0SR5y5xi1Pba1qKNM7-84" style="edgeStyle=orthogonalEdgeStyle;rounded=0;orthogonalLoop=1;jettySize=auto;html=1;entryX=0;entryY=0.5;entryDx=0;entryDy=0;" parent="1" source="KQ0SR5y5xi1Pba1qKNM7-66" target="KQ0SR5y5xi1Pba1qKNM7-67" edge="1">
          <mxGeometry relative="1" as="geometry" />
        </mxCell>
        <mxCell id="KQ0SR5y5xi1Pba1qKNM7-66" value="&lt;font style=&quot;font-size: 18px;&quot;&gt;Buy&lt;/font&gt;" style="rounded=0;whiteSpace=wrap;html=1;fillColor=#f8cecc;strokeColor=#b85450;" parent="1" vertex="1">
          <mxGeometry x="1723" y="-2130" width="120" height="60" as="geometry" />
        </mxCell>
        <mxCell id="KQ0SR5y5xi1Pba1qKNM7-85" style="edgeStyle=orthogonalEdgeStyle;rounded=0;orthogonalLoop=1;jettySize=auto;html=1;entryX=0.5;entryY=0;entryDx=0;entryDy=0;dashed=1;dashPattern=8 8;" parent="1" source="KQ0SR5y5xi1Pba1qKNM7-67" target="KQ0SR5y5xi1Pba1qKNM7-68" edge="1">
          <mxGeometry relative="1" as="geometry" />
        </mxCell>
        <mxCell id="KQ0SR5y5xi1Pba1qKNM7-67" value="&lt;font style=&quot;font-size: 18px;&quot;&gt;Add Data to the Cart&lt;/font&gt;" style="rounded=0;whiteSpace=wrap;html=1;fillColor=#d5e8d4;strokeColor=#82b366;" parent="1" vertex="1">
          <mxGeometry x="1923" y="-2130" width="120" height="60" as="geometry" />
        </mxCell>
        <mxCell id="QeqidoW3ztrJEfPdvDUn-1" style="edgeStyle=orthogonalEdgeStyle;rounded=0;orthogonalLoop=1;jettySize=auto;html=1;" edge="1" parent="1" source="KQ0SR5y5xi1Pba1qKNM7-68" target="KQ0SR5y5xi1Pba1qKNM7-73">
          <mxGeometry relative="1" as="geometry" />
        </mxCell>
        <mxCell id="QeqidoW3ztrJEfPdvDUn-2" style="edgeStyle=orthogonalEdgeStyle;rounded=0;orthogonalLoop=1;jettySize=auto;html=1;" edge="1" parent="1" source="KQ0SR5y5xi1Pba1qKNM7-68" target="KQ0SR5y5xi1Pba1qKNM7-71">
          <mxGeometry relative="1" as="geometry" />
        </mxCell>
        <mxCell id="KQ0SR5y5xi1Pba1qKNM7-68" value="&lt;font style=&quot;font-size: 18px;&quot;&gt;Receive Data&lt;/font&gt;" style="rounded=0;whiteSpace=wrap;html=1;fillColor=#f8cecc;strokeColor=#b85450;" parent="1" vertex="1">
          <mxGeometry x="1923" y="-2010" width="120" height="60" as="geometry" />
        </mxCell>
        <mxCell id="KQ0SR5y5xi1Pba1qKNM7-71" value="&lt;font style=&quot;font-size: 18px;&quot;&gt;Update Icon&lt;/font&gt;" style="rounded=0;whiteSpace=wrap;html=1;fillColor=#fff2cc;strokeColor=#d6b656;" parent="1" vertex="1">
          <mxGeometry x="1923" y="-1890" width="120" height="60" as="geometry" />
        </mxCell>
        <mxCell id="KQ0SR5y5xi1Pba1qKNM7-72" value="&lt;font style=&quot;font-size: 18px;&quot;&gt;Error&lt;/font&gt;" style="rounded=0;whiteSpace=wrap;html=1;fillColor=#fff2cc;strokeColor=#d6b656;" parent="1" vertex="1">
          <mxGeometry x="40" y="-690" width="120" height="60" as="geometry" />
        </mxCell>
        <mxCell id="QeqidoW3ztrJEfPdvDUn-14" style="edgeStyle=orthogonalEdgeStyle;rounded=0;orthogonalLoop=1;jettySize=auto;html=1;entryX=0.5;entryY=0;entryDx=0;entryDy=0;" edge="1" parent="1" source="KQ0SR5y5xi1Pba1qKNM7-73" target="QeqidoW3ztrJEfPdvDUn-13">
          <mxGeometry relative="1" as="geometry" />
        </mxCell>
        <mxCell id="KQ0SR5y5xi1Pba1qKNM7-73" value="&lt;font style=&quot;font-size: 18px;&quot;&gt;Error System&lt;/font&gt;" style="rounded=0;whiteSpace=wrap;html=1;fillColor=#f8cecc;strokeColor=#b85450;" parent="1" vertex="1">
          <mxGeometry x="1723" y="-2010" width="120" height="60" as="geometry" />
        </mxCell>
        <mxCell id="KQ0SR5y5xi1Pba1qKNM7-81" value="&lt;font style=&quot;font-size: 17px;&quot;&gt;no&lt;/font&gt;" style="text;strokeColor=none;align=center;fillColor=none;html=1;verticalAlign=middle;whiteSpace=wrap;rounded=0;" parent="1" vertex="1">
          <mxGeometry x="40" y="-720" width="60" height="30" as="geometry" />
        </mxCell>
        <mxCell id="QeqidoW3ztrJEfPdvDUn-3" value="&lt;span style=&quot;color: rgb(0, 0, 0); font-family: Helvetica; font-size: 18px; font-style: normal; font-variant-ligatures: normal; font-variant-caps: normal; font-weight: 400; letter-spacing: normal; orphans: 2; text-align: center; text-indent: 0px; text-transform: none; widows: 2; word-spacing: 0px; -webkit-text-stroke-width: 0px; background-color: rgb(251, 251, 251); text-decoration-thickness: initial; text-decoration-style: initial; text-decoration-color: initial; float: none; display: inline !important;&quot;&gt;Data ok&lt;/span&gt;" style="text;whiteSpace=wrap;html=1;" vertex="1" parent="1">
          <mxGeometry x="1913" y="-1930" width="100" height="50" as="geometry" />
        </mxCell>
        <mxCell id="QeqidoW3ztrJEfPdvDUn-4" value="&lt;span style=&quot;color: rgb(0, 0, 0); font-family: Helvetica; font-size: 18px; font-style: normal; font-variant-ligatures: normal; font-variant-caps: normal; font-weight: 400; letter-spacing: normal; orphans: 2; text-align: center; text-indent: 0px; text-transform: none; widows: 2; word-spacing: 0px; -webkit-text-stroke-width: 0px; background-color: rgb(251, 251, 251); text-decoration-thickness: initial; text-decoration-style: initial; text-decoration-color: initial; float: none; display: inline !important;&quot;&gt;no&lt;/span&gt;" style="text;whiteSpace=wrap;html=1;" vertex="1" parent="1">
          <mxGeometry x="1868" y="-2010" width="100" height="50" as="geometry" />
        </mxCell>
        <mxCell id="QeqidoW3ztrJEfPdvDUn-9" value="Click Menu" style="swimlane;whiteSpace=wrap;html=1;" vertex="1" parent="1">
          <mxGeometry x="856" y="-2200" width="770" height="420" as="geometry" />
        </mxCell>
        <mxCell id="KQ0SR5y5xi1Pba1qKNM7-43" value="&lt;font style=&quot;font-size: 18px;&quot;&gt;Loading Screen&lt;/font&gt;" style="rounded=0;whiteSpace=wrap;html=1;fillColor=#fff2cc;strokeColor=#d6b656;" parent="QeqidoW3ztrJEfPdvDUn-9" vertex="1">
          <mxGeometry x="50" y="160" width="120" height="60" as="geometry" />
        </mxCell>
        <mxCell id="QeqidoW3ztrJEfPdvDUn-10" value="Landing Page" style="swimlane;whiteSpace=wrap;html=1;" vertex="1" parent="1">
          <mxGeometry x="30" y="-2200" width="770" height="640" as="geometry" />
        </mxCell>
        <mxCell id="QeqidoW3ztrJEfPdvDUn-11" value="Add Item Show Basket" style="swimlane;whiteSpace=wrap;html=1;" vertex="1" parent="1">
          <mxGeometry y="-1110" width="400" height="520" as="geometry" />
        </mxCell>
        <mxCell id="QeqidoW3ztrJEfPdvDUn-12" value="Add Item Basket icon" style="swimlane;whiteSpace=wrap;html=1;" vertex="1" parent="1">
          <mxGeometry x="1670" y="-2200" width="400" height="400" as="geometry" />
        </mxCell>
        <mxCell id="QeqidoW3ztrJEfPdvDUn-13" value="&lt;font style=&quot;font-size: 18px;&quot;&gt;Show Error&lt;/font&gt;" style="rounded=0;whiteSpace=wrap;html=1;fillColor=#fff2cc;strokeColor=#d6b656;" vertex="1" parent="QeqidoW3ztrJEfPdvDUn-12">
          <mxGeometry x="53" y="280" width="120" height="60" as="geometry" />
        </mxCell>
        <mxCell id="QeqidoW3ztrJEfPdvDUn-24" style="edgeStyle=orthogonalEdgeStyle;rounded=0;orthogonalLoop=1;jettySize=auto;html=1;entryX=0;entryY=0.5;entryDx=0;entryDy=0;" edge="1" parent="1" source="QeqidoW3ztrJEfPdvDUn-15" target="QeqidoW3ztrJEfPdvDUn-16">
          <mxGeometry relative="1" as="geometry" />
        </mxCell>
        <mxCell id="QeqidoW3ztrJEfPdvDUn-29" style="edgeStyle=orthogonalEdgeStyle;rounded=0;orthogonalLoop=1;jettySize=auto;html=1;entryX=1;entryY=0.5;entryDx=0;entryDy=0;" edge="1" parent="1" source="QeqidoW3ztrJEfPdvDUn-15">
          <mxGeometry relative="1" as="geometry">
            <mxPoint x="1000" y="-1545" as="targetPoint" />
            <Array as="points">
              <mxPoint x="1040" y="-1545" />
            </Array>
          </mxGeometry>
        </mxCell>
        <mxCell id="QeqidoW3ztrJEfPdvDUn-15" value="&lt;font style=&quot;font-size: 18px;&quot;&gt;User Interaction&lt;br&gt;Click on a Product&lt;br&gt;&lt;/font&gt;" style="rounded=0;whiteSpace=wrap;html=1;fillColor=#f8cecc;strokeColor=#b85450;" vertex="1" parent="1">
          <mxGeometry x="1000" y="-1680" width="160" height="60" as="geometry" />
        </mxCell>
        <mxCell id="QeqidoW3ztrJEfPdvDUn-25" style="edgeStyle=orthogonalEdgeStyle;rounded=0;orthogonalLoop=1;jettySize=auto;html=1;entryX=1;entryY=0.5;entryDx=0;entryDy=0;dashed=1;" edge="1" parent="1" source="QeqidoW3ztrJEfPdvDUn-16" target="QeqidoW3ztrJEfPdvDUn-17">
          <mxGeometry relative="1" as="geometry">
            <mxPoint x="1410" y="-1540" as="targetPoint" />
            <Array as="points">
              <mxPoint x="1400" y="-1650" />
              <mxPoint x="1400" y="-1540" />
            </Array>
          </mxGeometry>
        </mxCell>
        <mxCell id="QeqidoW3ztrJEfPdvDUn-16" value="&lt;font style=&quot;font-size: 18px;&quot;&gt;Ask for Products&lt;/font&gt;" style="rounded=0;whiteSpace=wrap;html=1;fillColor=#d5e8d4;strokeColor=#82b366;" vertex="1" parent="1">
          <mxGeometry x="1241" y="-1680" width="130" height="60" as="geometry" />
        </mxCell>
        <mxCell id="QeqidoW3ztrJEfPdvDUn-26" style="edgeStyle=orthogonalEdgeStyle;rounded=0;orthogonalLoop=1;jettySize=auto;html=1;entryX=0.5;entryY=0;entryDx=0;entryDy=0;" edge="1" parent="1" source="QeqidoW3ztrJEfPdvDUn-17" target="QeqidoW3ztrJEfPdvDUn-18">
          <mxGeometry relative="1" as="geometry" />
        </mxCell>
        <mxCell id="QeqidoW3ztrJEfPdvDUn-27" style="edgeStyle=orthogonalEdgeStyle;rounded=0;orthogonalLoop=1;jettySize=auto;html=1;" edge="1" parent="1" source="QeqidoW3ztrJEfPdvDUn-17" target="QeqidoW3ztrJEfPdvDUn-20">
          <mxGeometry relative="1" as="geometry" />
        </mxCell>
        <mxCell id="QeqidoW3ztrJEfPdvDUn-17" value="&lt;font style=&quot;font-size: 18px;&quot;&gt;Receive Product Data&lt;/font&gt;" style="rounded=0;whiteSpace=wrap;html=1;fillColor=#f8cecc;strokeColor=#b85450;" vertex="1" parent="1">
          <mxGeometry x="1241" y="-1570" width="130" height="60" as="geometry" />
        </mxCell>
        <mxCell id="QeqidoW3ztrJEfPdvDUn-28" style="edgeStyle=orthogonalEdgeStyle;rounded=0;orthogonalLoop=1;jettySize=auto;html=1;" edge="1" parent="1" source="QeqidoW3ztrJEfPdvDUn-18" target="QeqidoW3ztrJEfPdvDUn-19">
          <mxGeometry relative="1" as="geometry" />
        </mxCell>
        <mxCell id="QeqidoW3ztrJEfPdvDUn-18" value="&lt;font style=&quot;font-size: 18px;&quot;&gt;Build Product Page&lt;/font&gt;" style="rounded=0;whiteSpace=wrap;html=1;fillColor=#fff2cc;strokeColor=#d6b656;" vertex="1" parent="1">
          <mxGeometry x="1241" y="-1460" width="130" height="60" as="geometry" />
        </mxCell>
        <mxCell id="QeqidoW3ztrJEfPdvDUn-19" value="&lt;font style=&quot;font-size: 18px;&quot;&gt;Clear All Products page&lt;/font&gt;" style="rounded=0;whiteSpace=wrap;html=1;fillColor=#fff2cc;strokeColor=#d6b656;" vertex="1" parent="1">
          <mxGeometry x="1430" y="-1460" width="130" height="60" as="geometry" />
        </mxCell>
        <mxCell id="QeqidoW3ztrJEfPdvDUn-20" value="&lt;font style=&quot;font-size: 18px;&quot;&gt;Error System&lt;/font&gt;" style="rounded=0;whiteSpace=wrap;html=1;fillColor=#f8cecc;strokeColor=#b85450;" vertex="1" parent="1">
          <mxGeometry x="1070" y="-1570" width="100" height="60" as="geometry" />
        </mxCell>
        <mxCell id="QeqidoW3ztrJEfPdvDUn-21" value="&lt;font style=&quot;font-size: 17px;&quot;&gt;ok&lt;/font&gt;" style="text;strokeColor=none;align=center;fillColor=none;html=1;verticalAlign=middle;whiteSpace=wrap;rounded=0;" vertex="1" parent="1">
          <mxGeometry x="1241" y="-1500" width="60" height="30" as="geometry" />
        </mxCell>
        <mxCell id="QeqidoW3ztrJEfPdvDUn-22" value="&lt;font style=&quot;font-size: 17px;&quot;&gt;no&lt;/font&gt;" style="text;strokeColor=none;align=center;fillColor=none;html=1;verticalAlign=middle;whiteSpace=wrap;rounded=0;" vertex="1" parent="1">
          <mxGeometry x="1160" y="-1575" width="60" height="30" as="geometry" />
        </mxCell>
        <mxCell id="QeqidoW3ztrJEfPdvDUn-30" value="Click on a Product" style="swimlane;whiteSpace=wrap;html=1;" vertex="1" parent="1">
          <mxGeometry x="856" y="-1740" width="770" height="420" as="geometry" />
        </mxCell>
        <mxCell id="QeqidoW3ztrJEfPdvDUn-31" value="&lt;font style=&quot;font-size: 18px;&quot;&gt;Loading Screen&lt;/font&gt;" style="rounded=0;whiteSpace=wrap;html=1;fillColor=#fff2cc;strokeColor=#d6b656;" vertex="1" parent="QeqidoW3ztrJEfPdvDUn-30">
          <mxGeometry x="50" y="160" width="120" height="60" as="geometry" />
        </mxCell>
      </root>
    </mxGraphModel>
  </diagram>
</mxfile>
